<?xml version="1.0" encoding="UTF-8"?>
<!DOCTYPE svg PUBLIC "-//W3C//DTD SVG 1.1//EN" "http://www.w3.org/Graphics/SVG/1.1/DTD/svg11.dtd">
<!-- Creator: CorelDRAW -->
<svg xmlns="http://www.w3.org/2000/svg" xml:space="preserve" width="512px" height="512px" version="1.1" style="shape-rendering:geometricPrecision; text-rendering:geometricPrecision; image-rendering:optimizeQuality; fill-rule:evenodd; clip-rule:evenodd"
viewBox="0 0 512 512"
 xmlns:xlink="http://www.w3.org/1999/xlink">
 <defs>
  <style type="text/css">
   <![CDATA[
    .str0 {stroke:black;stroke-width:13.9996;stroke-linecap:round;stroke-linejoin:round}
    .fil0 {fill:none;fill-rule:nonzero}
    .fil1 {fill:black}
   ]]>
  </style>
 </defs>
 <g id="Layer_x0020_1">
  <metadata id="CorelCorpID_0Corel-Layer"/>
  <path class="fil0 str0" d="M256 347c7,-14 14,-20 28,-20 16,0 29,12 29,27 0,27 -29,54 -57,81 -28,-27 -56,-54 -56,-81 0,-15 12,-27 28,-27 14,0 21,6 28,20z"/>
  <g id="_275201648">
   <g>
    <g id="_275200736">
     <path class="fil1" d="M256 292c-86,0 -156,-64 -156,-143 0,-79 70,-143 156,-143 86,0 156,64 156,143 0,79 -70,143 -156,143zm0 -272c-78,0 -142,58 -142,129 0,71 64,129 142,129 78,0 142,-58 142,-129 0,-71 -64,-129 -142,-129z"/>
    </g>
    <g id="_275200304">
     <path class="fil1" d="M404 137c-4,0 -7,-2 -7,-6 -1,-4 2,-7 6,-8 23,-3 41,-24 41,-48 0,-26 -22,-48 -49,-48 -15,0 -30,8 -39,20 -3,4 -7,4 -10,2 -3,-2 -4,-6 -2,-10 12,-16 31,-26 51,-26 35,0 63,28 63,62 0,15 -6,30 -15,41 -10,11 -24,19 -38,21 -1,0 -1,0 -1,0z"/>
    </g>
    <g id="_275201696">
     <path class="fil1" d="M396 108c-4,0 -7,-3 -7,-7 0,-4 3,-7 7,-7 10,0 18,-8 18,-19 0,-10 -8,-19 -19,-19 -7,0 -13,4 -17,11 -1,3 -6,5 -9,3 -3,-2 -5,-6 -3,-9 5,-12 17,-19 29,-19 18,0 33,15 33,33 0,18 -14,33 -32,33 0,0 0,0 0,0z"/>
    </g>
    <g id="_275200520">
     <path class="fil1" d="M108 137c0,0 0,0 -1,0 -14,-2 -28,-10 -38,-21 -9,-11 -15,-26 -15,-41 0,-34 28,-62 63,-62 20,0 39,10 51,26 2,4 1,8 -2,10 -3,2 -7,2 -10,-2 -9,-12 -24,-20 -39,-20 -27,0 -49,22 -49,48 0,24 18,45 41,48 4,1 7,4 6,8 0,4 -3,6 -7,6z"/>
    </g>
    <g id="_275201264">
     <path class="fil1" d="M116 108c0,0 0,0 0,0 -18,0 -32,-15 -32,-33 0,-18 15,-33 33,-33 12,0 24,7 29,19 2,3 0,7 -3,9 -3,2 -8,0 -9,-3 -4,-7 -10,-11 -17,-11 -11,0 -19,9 -19,19 0,11 8,19 18,19 4,0 7,3 7,7 0,4 -3,7 -7,7z"/>
    </g>
    <g>
     <g id="_275201288">
      <path class="fil1" d="M256 253c-42,0 -76,-27 -76,-62 0,-34 34,-62 76,-62 42,0 76,28 76,62 0,35 -34,62 -76,62zm0 -110c-34,0 -62,22 -62,48 0,27 28,48 62,48 34,0 62,-21 62,-48 0,-26 -28,-48 -62,-48z"/>
     </g>
     <g id="_275200544">
      <path class="fil1" d="M256 189c-21,0 -38,-17 -38,-38 0,-4 0,-8 2,-11 1,-4 5,-6 8,-5 4,1 6,5 5,9 -1,2 -1,5 -1,7 0,13 11,24 24,24 13,0 24,-11 24,-24 0,-2 0,-5 -1,-7 -1,-4 1,-8 5,-9 3,-1 7,1 8,5 2,3 2,7 2,11 0,21 -17,38 -38,38z"/>
     </g>
     <g>
      <g id="_275201792">
       <path class="fil1" d="M186 118c-13,0 -23,-11 -23,-24 0,-12 10,-23 23,-23 13,0 23,11 23,23 0,13 -10,24 -23,24zm0 -33c-5,0 -9,4 -9,9 0,5 4,10 9,10 5,0 9,-5 9,-10 0,-5 -4,-9 -9,-9z"/>
      </g>
      <g id="_275201864">
       <path class="fil1" d="M326 118c-13,0 -23,-11 -23,-24 0,-12 10,-23 23,-23 13,0 23,11 23,23 0,13 -10,24 -23,24zm0 -33c-5,0 -9,4 -9,9 0,5 4,10 9,10 5,0 9,-5 9,-10 0,-5 -4,-9 -9,-9z"/>
      </g>
     </g>
    </g>
    <g id="_275201936">
     <path class="fil1" d="M407 377c-3,0 -5,-2 -6,-4l-49 -123c-1,-4 0,-8 4,-9 4,-1 8,0 9,4l49 122c1,4 -1,8 -4,9 -1,1 -2,1 -3,1z"/>
    </g>
    <g id="_275202008">
     <path class="fil1" d="M386 506c-35,0 -63,-33 -63,-74 0,-41 28,-74 63,-74 34,0 63,33 63,74 0,41 -29,74 -63,74zm0 -134c-27,0 -49,27 -49,60 0,33 22,60 49,60 27,0 49,-27 49,-60 0,-33 -22,-60 -49,-60z"/>
    </g>
    <g id="_275202080">
     <path class="fil1" d="M105 377c-1,0 -2,0 -3,-1 -3,-1 -5,-5 -4,-9l49 -122c1,-4 5,-5 9,-4 4,1 5,5 4,9l-49 123c-1,2 -3,4 -6,4z"/>
    </g>
    <g id="_275202152">
     <path class="fil1" d="M126 506c-34,0 -63,-33 -63,-74 0,-41 29,-74 63,-74 35,0 63,33 63,74 0,41 -28,74 -63,74zm0 -134c-27,0 -49,27 -49,60 0,33 22,60 49,60 27,0 49,-27 49,-60 0,-33 -22,-60 -49,-60z"/>
    </g>
    <g id="_275202224">
     <path class="fil1" d="M50 370c-9,0 -17,-2 -25,-6 -11,-7 -20,-17 -23,-30 -4,-13 -2,-26 5,-38 6,-12 17,-20 30,-23l114 -32c4,-1 8,1 9,5 1,3 -1,7 -5,8l-115 32c-9,3 -17,9 -21,17 -5,8 -6,18 -4,27 3,9 9,17 17,22 9,4 18,6 27,3l53 -15c4,-1 8,2 9,5 1,4 -1,8 -5,9l-53 14c-4,2 -9,2 -13,2z"/>
    </g>
    <g id="_275202296">
     <path class="fil1" d="M462 370c-4,0 -9,0 -13,-2l-53 -14c-4,-1 -6,-5 -5,-9 1,-3 5,-6 9,-5l53 15c9,3 18,1 27,-3 8,-5 14,-13 17,-22 2,-9 1,-19 -4,-27 -4,-8 -12,-14 -21,-17l-115 -32c-4,-1 -6,-5 -5,-8 1,-4 5,-6 9,-5l114 32c13,3 24,11 30,23 7,12 9,25 5,38 -3,13 -12,23 -23,30 -8,4 -16,6 -25,6z"/>
    </g>
    <g id="_275202368">
     <path class="fil1" d="M353 493l-194 0c-4,0 -7,-3 -7,-7 0,-4 3,-7 7,-7l194 0c4,0 7,3 7,7 0,4 -3,7 -7,7z"/>
    </g>
   </g>
   <g id="_275199344">
    <path class="fil1" d="M256 447c-2,0 -3,-1 -5,-2 -29,-28 -58,-57 -58,-87 0,-19 15,-34 35,-34 13,0 22,5 28,14 6,-9 15,-14 28,-14 20,0 35,15 35,34 0,30 -29,59 -58,87 -1,1 -3,2 -5,2zm-28 -109c-12,0 -21,9 -21,20 0,23 24,48 49,72 25,-24 49,-49 49,-72 0,-11 -9,-20 -21,-20 -10,0 -15,4 -22,17 -1,2 -3,3 -6,3 -3,0 -5,-1 -6,-3 -7,-13 -12,-17 -22,-17z"/>
   </g>
  </g>
 </g>
</svg>
