<?xml version="1.0" encoding="UTF-8"?>
<!DOCTYPE svg PUBLIC "-//W3C//DTD SVG 1.1//EN" "http://www.w3.org/Graphics/SVG/1.1/DTD/svg11.dtd">
<!-- Creator: CorelDRAW -->
<svg xmlns="http://www.w3.org/2000/svg" xml:space="preserve" width="512px" height="512px" version="1.1" style="shape-rendering:geometricPrecision; text-rendering:geometricPrecision; image-rendering:optimizeQuality; fill-rule:evenodd; clip-rule:evenodd"
viewBox="0 0 512 512"
 xmlns:xlink="http://www.w3.org/1999/xlink">
 <defs>
  <style type="text/css">
   <![CDATA[
    .fil0 {fill:black}
   ]]>
  </style>
 </defs>
 <g id="Layer_x0020_1">
  <metadata id="CorelCorpID_0Corel-Layer"/>
  <g id="_427714056">
   <g>
    <path class="fil0" d="M246 325c-37,0 -72,-15 -99,-41 -26,-27 -41,-62 -41,-99 0,-37 15,-72 41,-99 27,-26 62,-41 99,-41 77,0 140,63 140,140 0,77 -63,140 -140,140zm0 -266c-70,0 -126,56 -126,126 0,69 56,126 126,126 69,0 126,-57 126,-126 0,-70 -57,-126 -126,-126z"/>
   </g>
   <g>
    <path class="fil0" d="M359 512c-3,0 -5,-1 -6,-4l-84 -145c-2,-3 -1,-7 2,-9 4,-2 8,-1 10,2l74 129 17 -91c0,-2 2,-4 3,-5 2,-1 4,-1 6,-1l85 32 -78 -135c-2,-3 -1,-7 2,-9 4,-2 8,-1 10,2l88 152c2,3 1,6 -1,8 -2,3 -5,3 -7,2l-96 -36 -18 102c-1,3 -3,5 -6,6 0,0 -1,0 -1,0z"/>
   </g>
   <g>
    <path class="fil0" d="M153 512c0,0 -1,0 -1,0 -3,-1 -5,-3 -6,-6l-18 -101 -96 36c-2,1 -5,0 -7,-2 -2,-3 -3,-6 -1,-8l83 -144c2,-4 6,-5 10,-3 3,2 4,6 2,10l-73 127 85 -33c2,0 4,0 6,1 1,1 3,3 3,5l17 91 78 -136c2,-4 6,-5 10,-3 3,2 4,6 2,10l-88 153c-1,2 -4,3 -6,3z"/>
   </g>
   <g>
    <path class="fil0" d="M293 264c-1,0 -2,0 -3,-1l-44 -24 -43 24c-2,1 -5,1 -7,0 -2,-2 -3,-5 -3,-7l9 -49 -36 -34c-2,-2 -3,-5 -2,-7 1,-3 3,-5 6,-5l49 -6 21 -45c1,-2 3,-4 6,-4 0,0 0,0 0,0 3,0 5,1 6,4l22 45 49 6c3,0 5,2 6,5 0,2 0,5 -2,7l-36 34 9 49c0,2 -1,5 -3,7 -1,1 -3,1 -4,1zm-47 -40c1,0 2,0 3,1l34 19 -7 -38c0,-2 0,-4 2,-6l29 -27 -39 -5c-2,0 -4,-2 -5,-4l-17 -34 -16 34c-1,2 -3,4 -5,4l-39 5 29 27c2,2 2,4 2,6l-7 37 33 -18c1,-1 2,-1 3,-1zm-22 -63l0 0 0 0z"/>
   </g>
   <g>
    <path class="fil0" d="M209 370c-2,0 -4,-1 -5,-2l-27 -25 -37 -3c-2,0 -5,-2 -6,-4l-15 -35 -31 -18c-3,-1 -4,-3 -4,-6l0 -38 -23 -29c-1,-2 -1,-5 0,-7l16 -34 -9 -36c0,-3 0,-6 2,-7l29 -25 7 -35c1,-3 2,-5 5,-6l35 -11 21 -30c2,-2 4,-3 7,-3l36 4 32 -19c3,-1 5,-1 7,0l32 19 38 -4c3,0 5,1 7,3l20 30 36 11c2,1 4,3 5,6l7 35 28 25c2,1 3,4 3,7l-9 36 15 34c1,3 1,5 -1,7l-21 29 0 38c0,2 -1,5 -4,6l-32 18 -15 35c-1,2 -3,4 -6,4l-36 3 -27 25c-2,2 -5,2 -7,2l-36 -13 -35 13c0,0 -1,0 -2,0zm37 -27c1,0 1,0 2,0l34 12 26 -24c1,-1 3,-2 4,-2l35 -3 14 -33c1,-1 2,-2 3,-3l31 -17 0 -36c0,-2 0,-3 1,-4l21 -28 -14 -32c-1,-2 -1,-3 -1,-5l8 -35 -27 -23c-1,-1 -2,-2 -2,-4l-7 -34 -34 -10c-2,-1 -3,-2 -4,-3l-20 -29 -35 4c-2,0 -3,0 -5,-1l-30 -18 -31 18c-1,1 -2,1 -4,1l-35 -4 -20 29c-1,1 -3,2 -4,3l-33 10 -7 34c-1,2 -1,3 -3,4l-26 23 8 35c0,2 0,3 -1,5l-15 32 21 28c1,1 2,2 2,4l0 36 30 17c2,1 3,2 3,3l15 33 34 3c2,0 4,1 5,2l26 24 33 -12c0,0 1,0 2,0z"/>
   </g>
   <g>
    <path class="fil0" d="M246 299c-30,0 -58,-12 -80,-33 -21,-22 -33,-51 -33,-81 0,-62 51,-113 113,-113 30,0 59,12 80,33 22,21 34,50 34,80 0,63 -51,114 -114,114zm0 -213c-55,0 -99,44 -99,99 0,55 44,100 99,100 55,0 100,-45 100,-100 0,-55 -45,-99 -100,-99z"/>
   </g>
  </g>
 </g>
</svg>
